# xmcd
#
# Track frame offsets: 
#        150
#        27563
#        51546
#        77765
#        98512
#        124553
#        147276
#        172102
#        195615
#        219288
#
# Disc length: 3283 seconds
#
# Revision: 0
# Processed by: cddbd v1.5.2PL0 Copyright (c) Steve Scherf et al.
# Submitted via: ExactAudioCopy v1.0b3
#
DISCID=8a0cd10a
DTITLE=Nhat Truong - Giot Ca Phe Dau Nam
DYEAR=1900
DGENRE=
TTITLE0=Giot ca phe dau tien
TTITLE1=Loi tu tinh trong Xuan
TTITLE2=Nhat Truong, My Lan - Dam cuoi dau Xuan
TTITLE3=Nho mot chieu Xuan
TTITLE4=Nhat Truong, My Lan - Ngay dau mot nam
TTITLE5=Nhat Truong, nhom BVDL - Dau Xuan linh chuc
TTITLE6=Nhat Truong, Tu Ca - Loc non
TTITLE7=Toi di tim lai mot mua Xuan
TTITLE8=Tet Cali Tet Saigon
TTITLE9=Sai Gon gan xa
EXTD=
EXTT0=
EXTT1=
EXTT2=
EXTT3=
EXTT4=
EXTT5=
EXTT6=
EXTT7=
EXTT8=
EXTT9=
PLAYORDER=
